<svg id="Laag_1" data-name="Laag 1" xmlns="http://www.w3.org/2000/svg" viewBox="0 0 537 327"><path d="M33.92,0H87.08A16.93,16.93,0,0,1,104,16.92V310.08A16.93,16.93,0,0,1,87.08,327H33.92A16.93,16.93,0,0,1,17,310.08V16.92A16.93,16.93,0,0,1,33.92,0Z"/><path d="M26,177.76l261.6,147.15A16.35,16.35,0,0,0,312,310.65V16.35a16.34,16.34,0,0,0-8.11-14.13A16.52,16.52,0,0,0,295.65,0a16.32,16.32,0,0,0-8,2.09L26,149.24a16.36,16.36,0,0,0,0,28.52Z"/><path d="M234,177.76l261.6,147.15A16.35,16.35,0,0,0,520,310.65V16.35a16.34,16.34,0,0,0-8.11-14.13A16.52,16.52,0,0,0,503.65,0a16.32,16.32,0,0,0-8,2.09L234,149.24a16.36,16.36,0,0,0,0,28.52Z"/></svg>