<?xml version="1.0" encoding="utf-8"?>
<!-- Generator: Adobe Illustrator 24.3.0, SVG Export Plug-In . SVG Version: 6.00 Build 0)  -->
<svg version="1.1" id="Capa_1" xmlns="http://www.w3.org/2000/svg" xmlns:xlink="http://www.w3.org/1999/xlink" x="0px" y="0px"
	 viewBox="0 0 357 327" style="enable-background:new 0 0 357 327;" xml:space="preserve">
<style type="text/css">
	.st0{fill:#AAAAAA;}
</style>
<g>
	<g>
		<g>
			<path class="st0" d="M45.8,210.2H34.6c-9.8,0-17.7,7.9-17.7,17.7v81.3c0,9.8,7.9,17.7,17.7,17.7h81.3c9.8,0,17.7-7.9,17.7-17.7
				V298c0-9.8-7.9-17.7-17.7-17.7H78.8c-8.4,0-15.2-6.8-15.2-15.2V228C63.5,218.2,55.6,210.2,45.8,210.2z"/>
			<path class="st0" d="M34.6,116.8h11.2c9.8,0,17.7-7.9,17.7-17.7V62c0-8.4,6.8-15.2,15.2-15.2h37.1c9.8,0,17.7-7.9,17.7-17.7V17.7
				c0-9.8-7.9-17.7-17.7-17.7H34.6c-9.8,0-17.7,7.9-17.7,17.7V99C16.8,108.8,24.8,116.8,34.6,116.8z"/>
			<path class="st0" d="M227,17.7V29c0,9.8,7.9,17.7,17.7,17.7h37.1c8.4,0,15.2,6.8,15.2,15.2V99c0,9.8,7.9,17.7,17.7,17.7h11.2
				c9.8,0,17.7-7.9,17.7-17.7V17.7c0-9.8-7.9-17.7-17.7-17.7h-81.3C235,0,227,7.9,227,17.7z"/>
			<path class="st0" d="M281.9,280.3h-37.1c-9.8,0-17.7,7.9-17.7,17.7v11.2c0,9.8,7.9,17.7,17.7,17.7h81.3c9.8,0,17.7-7.9,17.7-17.7
				V228c0-9.8-7.9-17.7-17.7-17.7h-11.2c-9.8,0-17.7,7.9-17.7,17.7V265C297.1,273.5,290.3,280.3,281.9,280.3z"/>
		</g>
	</g>
</g>
</svg>
