<?xml version="1.0" encoding="utf-8"?>
<!-- Generator: Adobe Illustrator 25.0.0, SVG Export Plug-In . SVG Version: 6.00 Build 0)  -->
<svg version="1.1" id="Capa_1" xmlns="http://www.w3.org/2000/svg" xmlns:xlink="http://www.w3.org/1999/xlink" x="0px" y="0px"
	 viewBox="0 0 387 327" style="enable-background:new 0 0 387 327;" xml:space="preserve">
<style type="text/css">
	.st0{fill:#474747;}
</style>
<g>
	<g>
		<path class="st0" d="M28.8,254.8h71.6c2.8,0,5.6,1,7.8,2.8l81.5,66.6c8,6.6,20.1,0.9,20.1-9.5V12.3c0-10.4-12-16.1-20.1-9.5
			l-81.5,66.6c-2.2,1.8-4.9,2.8-7.8,2.8H28.8c-6.8,0-12.3,5.5-12.3,12.3v158C16.5,249.3,22,254.8,28.8,254.8z"/>
	</g>
	<path class="st0" d="M337.8,226.5l-95.1-95.1c-2.6-2.6-2.6-6.8,0-9.4l21.4-21.4c2.6-2.6,6.8-2.6,9.4,0l95.1,95.1
		c2.6,2.6,2.6,6.8,0,9.4l-21.4,21.4C344.6,229,340.4,229,337.8,226.5z"/>
	<path class="st0" d="M368.6,131.4l-95.1,95.1c-2.6,2.6-6.8,2.6-9.4,0L242.7,205c-2.6-2.6-2.6-6.8,0-9.4l95.1-95.1
		c2.6-2.6,6.8-2.6,9.4,0l21.4,21.4C371.2,124.6,371.2,128.8,368.6,131.4z"/>
</g>
</svg>
