<?xml version="1.0" encoding="utf-8"?>
<!-- Generator: Adobe Illustrator 24.3.0, SVG Export Plug-In . SVG Version: 6.00 Build 0)  -->
<svg version="1.1" id="Laag_1" xmlns="http://www.w3.org/2000/svg" xmlns:xlink="http://www.w3.org/1999/xlink" x="0px" y="0px"
	 viewBox="0 0 327 327" style="enable-background:new 0 0 327 327;" xml:space="preserve">
<style type="text/css">
	.st0{fill:#AAAAAA;}
</style>
<path class="st0" d="M211.9,0h53.2c9.3,0,16.9,7.6,16.9,16.9v293.2c0,9.3-7.6,16.9-16.9,16.9h-53.2c-9.3,0-16.9-7.6-16.9-16.9V16.9
	C195,7.6,202.6,0,211.9,0z"/>
<path class="st0" d="M61.9,0h53.2c9.3,0,16.9,7.6,16.9,16.9v293.2c0,9.3-7.6,16.9-16.9,16.9H61.9c-9.3,0-16.9-7.6-16.9-16.9V16.9
	C45,7.6,52.6,0,61.9,0z"/>
</svg>
