<?xml version="1.0" encoding="utf-8"?>
<!-- Generator: Adobe Illustrator 25.0.0, SVG Export Plug-In . SVG Version: 6.00 Build 0)  -->
<svg version="1.1" id="Laag_1" xmlns="http://www.w3.org/2000/svg" xmlns:xlink="http://www.w3.org/1999/xlink" x="0px" y="0px"
	 viewBox="0 0 537 327" style="enable-background:new 0 0 537 327;" xml:space="preserve">
<style type="text/css">
	.st0{fill:#474747;}
</style>
<g>
	<path class="st0" d="M33.9,0h53.2C96.4,0,104,7.6,104,16.9v293.2c0,9.3-7.6,16.9-16.9,16.9H33.9c-9.3,0-16.9-7.6-16.9-16.9V16.9
		C17,7.6,24.6,0,33.9,0z"/>
	<path class="st0" d="M26,177.8l261.6,147.1c7.9,4.4,17.8,1.7,22.3-6.2c1.4-2.5,2.1-5.2,2.1-8.1V16.4c0-5.8-3.1-11.2-8.1-14.1
		c-2.5-1.4-5.3-2.2-8.2-2.2c-2.8,0-5.6,0.7-8,2.1L26,149.2c-7.9,4.4-10.7,14.4-6.2,22.3C21.2,174.1,23.4,176.3,26,177.8L26,177.8z"
		/>
	<path class="st0" d="M234,177.8l261.6,147.1c7.9,4.4,17.8,1.7,22.3-6.2c1.4-2.5,2.1-5.2,2.1-8.1V16.4c0-5.8-3.1-11.2-8.1-14.1
		c-2.5-1.4-5.3-2.2-8.2-2.2c-2.8,0-5.6,0.7-8,2.1L234,149.2c-7.9,4.4-10.7,14.4-6.2,22.3C229.2,174.1,231.4,176.3,234,177.8
		L234,177.8z"/>
</g>
</svg>
